<svg xmlns="http://www.w3.org/2000/svg" width="27.778" height="25" viewBox="0 0 27.778 25"><defs><style>.a{fill:#141414;opacity:0.6;}</style></defs><path class="a" d="M10.333,8.556V5.778A2.786,2.786,0,0,1,13.111,3h5.556a2.778,2.778,0,0,1,2.778,2.778V8.556H27a2.778,2.778,0,0,1,2.778,2.778V25.222A2.778,2.778,0,0,1,27,28H4.778A2.778,2.778,0,0,1,2,25.222V11.333A2.786,2.786,0,0,1,4.778,8.556Zm11.111,2.778H10.333V25.222H21.444Zm2.778,0V25.222H27V11.333Zm-16.667,0H4.778V25.222H7.556Zm5.556-2.778h5.556V5.778H13.111Z" transform="translate(-2 -3)"/></svg>